<svg id="Camada_1" data-name="Camada 1" xmlns="http://www.w3.org/2000/svg" viewBox="0 0 171.13 37.74"><defs><style>.cls-1{fill:#cfa2e4;}.cls-2{fill:#fff;}</style></defs><path d="M171.93,11.86a12.52,12.52,0,0,0-24.48,0,12.16,12.16,0,0,0-.29,2.65,13,13,0,0,0,.19,2.17,12.53,12.53,0,0,0,24.67,0,12,12,0,0,0,.19-2.17A12.81,12.81,0,0,0,171.93,11.86Z" transform="translate(-2.43 -0.63)"/><path class="cls-1" d="M173.57,14.51a14.79,14.79,0,0,1-.21,2.41,13.88,13.88,0,0,1-27.55-2.41,14.23,14.23,0,0,1,.31-2.94,13.88,13.88,0,0,1,27.13,0A13.58,13.58,0,0,1,173.57,14.51Z" transform="translate(-2.43 -0.63)"/><path class="cls-1" d="M172.21,14.51a12,12,0,0,1-.19,2.17,12.53,12.53,0,0,1-24.67,0,13,13,0,0,1-.19-2.17,12.16,12.16,0,0,1,.29-2.65,12.52,12.52,0,0,1,24.48,0A12.81,12.81,0,0,1,172.21,14.51Z" transform="translate(-2.43 -0.63)"/><circle class="cls-2" cx="157.28" cy="13.88" r="10.51"/><path d="M170.43,11.92a9.45,9.45,0,0,0-.58-1.75c0-.12-.1-.24-.16-.36a10.65,10.65,0,0,0-.83-1.47,11.13,11.13,0,0,0-3-3,9.94,9.94,0,0,0-1.46-.82L164,4.34a10.83,10.83,0,0,0-4.34-.89,11,11,0,0,0-4.34.88L155,4.5a9.94,9.94,0,0,0-1.46.82,11.13,11.13,0,0,0-3,3,11.8,11.8,0,0,0-.83,1.47c-.06.12-.11.24-.16.36a10.26,10.26,0,0,0-.58,1.75,11,11,0,0,0-.08,4.82,10.78,10.78,0,0,0,.66,2.11c.05.12.1.24.16.36a11,11,0,0,0,.83,1.46,11.13,11.13,0,0,0,3,3,11,11,0,0,0,1.46.83l.36.16a11.14,11.14,0,0,0,8.68,0l.36-.16a11,11,0,0,0,1.46-.83,11.13,11.13,0,0,0,3-3,10,10,0,0,0,.83-1.46c.06-.12.11-.24.16-.36a10.78,10.78,0,0,0,.66-2.11,11,11,0,0,0-.08-4.82Zm-6.14,11.32a17.88,17.88,0,0,1-3.59-1.89l-.38-.26-.1-.07h0a1,1,0,0,0-1.05,0h0l-.11.07-.37.26a18.76,18.76,0,0,1-3.6,1.89A10,10,0,0,1,151,19.12c0-.09.07-.19.11-.29a16,16,0,0,1,1-2.09c.23-.41.49-.81.76-1.22l.06-.09c.1-.16.21-.31.32-.46a1,1,0,0,0,0-.94l-.27-.38-.1-.15c-.35-.53-.67-1.06-1-1.58a15.06,15.06,0,0,1-.82-1.74c0-.1-.08-.19-.11-.29a10,10,0,0,1,4.12-4.12,18.29,18.29,0,0,1,3.6,1.9l.24.16h0l.27.18a1,1,0,0,0,1,0l.26-.18h0l.24-.16a18,18,0,0,1,3.59-1.9,9.94,9.94,0,0,1,4.13,4.12c0,.1-.08.19-.11.29a17.06,17.06,0,0,1-.83,1.74c-.28.52-.6,1.05-.95,1.58l-.11.15h0l-.25.37h0a1,1,0,0,0,0,.92h0l.32.46h0l.06.09c.27.4.52.81.75,1.22a17.52,17.52,0,0,1,1,2.09,2.49,2.49,0,0,0,.11.29A9.94,9.94,0,0,1,164.29,23.24Z" transform="translate(-2.43 -0.63)"/><path d="M163.67,12.93l-3.4-2.46a1,1,0,0,0-1.18,0l-3.39,2.46a1,1,0,0,0-.37,1.13l1.3,4a1,1,0,0,0,1,.7h4.2a1,1,0,0,0,1-.7l1.29-4A1,1,0,0,0,163.67,12.93Z" transform="translate(-2.43 -0.63)"/><path class="cls-2" d="M23.43,19.35v5.28H8.74v1.68H22.5v5.07H8.74v1.71H23.43v5.28h-21v-19Z" transform="translate(-2.43 -0.63)"/><path class="cls-2" d="M38.89,19.33c1.8,0,8.2.26,8.2,7.31s-6,7.87-8,7.87H31.85v3.86h-6.3v-19Zm2.3,7.52c0-1.84-1.72-1.91-2.6-1.91H31.85v4h6.84C39.66,28.91,41.19,28.69,41.19,26.85Z" transform="translate(-2.43 -0.63)"/><path class="cls-2" d="M72.79,19.35v19h-6.3V31.75H55.16v6.62h-6.3v-19h6.3v6.59H66.49V19.35Z" transform="translate(-2.43 -0.63)"/><path class="cls-2" d="M96.05,19.35v5.28H81.36v1.68H95.12v5.07H81.36v1.71H96.05v5.28h-21v-19Z" transform="translate(-2.43 -0.63)"/><path class="cls-2" d="M112.14,19.33c1.8,0,8.2.25,8.2,7,0,3.52-1.64,5.41-3.49,6.42l3.89,5.62-7.3,0-3.23-4.47h-5.73v4.5h-6.3v-19Zm1.77,7.21c0-1.59-1.63-1.65-2.46-1.65h-7v3.42h7.07C112.46,28.31,113.91,28.12,113.91,26.54Z" transform="translate(-2.43 -0.63)"/><path class="cls-2" d="M143.1,19.35v5.28H128.41v1.68h13.76v5.07H128.41v1.71H143.1v5.28h-21v-19Z" transform="translate(-2.43 -0.63)"/></svg>