<svg width="54" height="56" viewBox="0 0 54 56" fill="none" xmlns="http://www.w3.org/2000/svg">
<g clip-path="url(#clip0)">
<path opacity="0.1" d="M27.5 55.1313C42.6878 55.1313 55 42.8192 55 27.6313C55 12.4435 42.6878 0.131348 27.5 0.131348C12.3122 0.131348 0 12.4435 0 27.6313C0 42.8192 12.3122 55.1313 27.5 55.1313Z" fill="white"/>
<path d="M18.0601 37.695H32.4981L31.8087 35.3875L33.4701 36.8528L34.982 38.2537L37.7359 40.6342V18.0884C37.6866 17.3881 37.383 16.7331 36.886 16.2549C36.3891 15.7766 35.7355 15.5106 35.0568 15.5103H18.0809C17.4055 15.5008 16.7534 15.7654 16.2642 16.2473C15.7751 16.7292 15.4879 17.3901 15.464 18.0884V35.0954C15.4694 35.443 15.5415 35.786 15.6762 36.1044C15.8109 36.4229 16.0055 36.7104 16.2486 36.9504C16.4918 37.1903 16.7786 37.3778 17.0924 37.5019C17.4063 37.6261 17.7409 37.6844 18.0767 37.6736L18.0601 37.695ZM28.7391 21.4485H28.7059H28.7266H28.7391ZM21.0134 22.7763C22.0422 21.9578 23.2925 21.4921 24.5896 21.4443L24.7267 21.5861C22.4546 22.1447 21.4246 23.1974 21.4246 23.1974C21.4246 23.1974 21.6986 23.0598 22.1805 22.8449C23.7016 22.2169 25.3344 21.9306 26.9706 22.0047C28.6069 22.0787 30.2093 22.5115 31.6716 23.2746C30.7414 22.5099 29.6635 21.9604 28.5106 21.6633L28.6976 21.4701C29.9744 21.527 31.2037 21.9873 32.2199 22.7891C33.3974 25.0517 34.0368 27.5719 34.0849 30.141C33.5789 30.7113 32.964 31.1667 32.279 31.4781C31.594 31.7895 30.8539 31.9501 30.1056 31.95C30.1056 31.95 29.628 31.3914 29.2749 30.9016C30.1689 30.6889 30.9676 30.1713 31.5428 29.4321C31.0776 29.7167 30.5979 29.975 30.1056 30.2056C29.5078 30.4556 28.8872 30.6427 28.2531 30.7642C25.3456 31.254 23.6841 30.4334 22.1431 29.7846L21.6156 29.5051C22.1724 30.233 22.9465 30.7497 23.8171 30.9746C23.4017 31.4644 22.9863 32.0232 22.9863 32.0232C20.166 31.9545 19.1359 30.1324 19.1359 30.1324C19.1829 27.5642 19.8193 25.0444 20.9926 22.7805L21.0134 22.7763Z" fill="white"/>
<path d="M28.9218 28.8687C29.2747 28.8608 29.6102 28.7085 29.8547 28.4451C30.0992 28.1817 30.2327 27.8287 30.226 27.4636C30.2316 27.0997 30.0974 26.7483 29.8529 26.4865C29.6085 26.2248 29.2736 26.0739 28.9218 26.0671C28.5696 26.075 28.2348 26.2268 27.9904 26.4893C27.746 26.7517 27.6119 27.1037 27.6175 27.468C27.6119 27.8324 27.746 28.1841 27.9904 28.4466C28.2348 28.709 28.5696 28.8608 28.9218 28.8687Z" fill="white"/>
<path d="M24.2449 28.8687C24.5978 28.8608 24.9332 28.7085 25.1777 28.4451C25.4222 28.1817 25.5558 27.8287 25.5491 27.4636C25.5546 27.1004 25.421 26.7497 25.1774 26.488C24.9338 26.2264 24.6001 26.075 24.249 26.0671C23.8968 26.075 23.562 26.2268 23.3176 26.4893C23.0732 26.7517 22.9392 27.1037 22.9447 27.468C22.9391 27.8317 23.0726 28.1828 23.3161 28.4451C23.5596 28.7074 23.8934 28.8597 24.2449 28.8687Z" fill="white"/>
</g>
<defs>
<clipPath id="clip0">
<rect width="53.1667" height="55" fill="white" transform="translate(0 0.131348)"/>
</clipPath>
</defs>
</svg>
