<svg width="54" height="56" viewBox="0 0 54 56" fill="none" xmlns="http://www.w3.org/2000/svg">
<g clip-path="url(#clip0)">
<path opacity="0.1" d="M27.6666 55.1313C42.8545 55.1313 55.1666 42.8192 55.1666 27.6313C55.1666 12.4435 42.8545 0.131348 27.6666 0.131348C12.4788 0.131348 0.166626 12.4435 0.166626 27.6313C0.166626 42.8192 12.4788 55.1313 27.6666 55.1313Z" fill="white"/>
<g clip-path="url(#clip1)">
<path d="M36.9949 36.1312H37V28.7952C37 25.2069 36.2273 22.4429 32.0324 22.4429C30.0156 22.4429 28.6625 23.5495 28.1098 24.5987H28.0516V22.7776H24.0742V36.1312H28.2148V29.5187C28.2148 27.7776 28.5449 26.0944 30.7008 26.0944C32.825 26.0944 32.8566 28.0812 32.8566 29.6304V36.1312H36.9949Z" fill="white"/>
<path d="M17.3301 22.7788H21.4766V36.1312H17.3301V22.7788Z" fill="white"/>
<path d="M19.4016 16.1313C18.7647 16.1316 18.154 16.3846 17.7036 16.835C17.2533 17.2853 17.0002 17.896 17 18.5329C17 19.8587 18.0758 20.9571 19.4016 20.9571C20.7273 20.9571 21.8047 19.8587 21.8047 18.5329C21.8042 17.8959 21.5508 17.2851 21.1002 16.8348C20.6496 16.3845 20.0386 16.1315 19.4016 16.1313Z" fill="white"/>
</g>
</g>
<defs>
<clipPath id="clip0">
<rect width="53.1667" height="55" fill="white" transform="translate(0.166626 0.131348)"/>
</clipPath>
<clipPath id="clip1">
<rect width="20" height="20" fill="white" transform="translate(17 16.1313)"/>
</clipPath>
</defs>
</svg>
