<svg width="56" height="56" viewBox="0 0 56 56" fill="none" xmlns="http://www.w3.org/2000/svg">
<g clip-path="url(#clip0)">
<path opacity="0.1" d="M27.6666 55.1313C42.8545 55.1313 55.1666 42.8192 55.1666 27.6313C55.1666 12.4435 42.8545 0.131348 27.6666 0.131348C12.4788 0.131348 0.166626 12.4435 0.166626 27.6313C0.166626 42.8192 12.4788 55.1313 27.6666 55.1313Z" fill="white"/>
<path d="M39.8698 20.0643C38.9516 20.4649 37.9806 20.7311 36.9866 20.8549C38.0339 20.2329 38.8166 19.2483 39.1865 18.0877C38.2049 18.6698 37.131 19.0796 36.0112 19.2994C35.5424 18.7992 34.976 18.4005 34.3471 18.1278C33.7181 17.8551 33.04 17.7142 32.3545 17.7139C31.6974 17.7139 31.0466 17.8435 30.4395 18.0951C29.8324 18.3467 29.2808 18.7155 28.8163 19.1804C28.3518 19.6453 27.9836 20.197 27.7325 20.8043C27.4814 21.4117 27.3523 22.0625 27.3529 22.7197C27.3489 23.1038 27.3878 23.4872 27.4689 23.8627C25.4788 23.7639 23.5318 23.2467 21.7549 22.345C19.978 21.4432 18.4111 20.177 17.1564 18.6291C16.7095 19.3976 16.4738 20.2709 16.4733 21.16C16.4738 21.9823 16.6767 22.792 17.0641 23.5174C17.4516 24.2428 18.0115 24.8617 18.6948 25.3194C17.903 25.2987 17.1279 25.0879 16.4346 24.7049V24.7607C16.4363 25.9159 16.8359 27.0354 17.566 27.9307C18.2961 28.8259 19.3123 29.4425 20.4436 29.6765C20.0159 29.7887 19.5752 29.8436 19.133 29.8397C18.8143 29.8454 18.496 29.8165 18.1835 29.7537C18.5072 30.7464 19.1304 31.6145 19.9676 32.2385C20.8047 32.8625 21.8146 33.2117 22.8584 33.2384C21.0889 34.6287 18.9041 35.3852 16.6537 35.3869C16.2531 35.3896 15.8526 35.3668 15.4549 35.3183C17.7435 36.7936 20.4106 37.5741 23.1335 37.5655C32.3417 37.5655 37.3776 29.9385 37.3776 23.3256C37.3776 23.1065 37.3776 22.896 37.3776 22.6769C38.3601 21.9647 39.2047 21.0794 39.8698 20.0643Z" fill="white"/>
</g>
<defs>
<clipPath id="clip0">
<rect width="55" height="55" fill="white" transform="translate(0.166626 0.131348)"/>
</clipPath>
</defs>
</svg>
